<svg xmlns="http://www.w3.org/2000/svg" width="637" height="552" viewBox="0 0 637 552" font-family="'SF Mono','Cascadia Code',Menlo,Consolas,monospace" font-size="13">
  <rect width="637" height="552" rx="8" fill="#0d1117"/>
  <text><tspan x="16.0" y="31" fill="#8b949e">$ </tspan><tspan x="32.8" y="31" fill="#00FF94" font-weight="bold">opensec scan ./</tspan>
<tspan x="16.0" y="51" fill="#c9d1d9" font-weight="bold">  17 findings</tspan>

<tspan x="16.0" y="91" fill="#8b949e">┌───────────┬──────────────────────────┬──────────────────────────┬───────┐</tspan>
<tspan x="16.0" y="111" fill="#8b949e" font-weight="bold">│ SEVERITY  │ RULE                     │ FILE                     │ LINE  │</tspan>
<tspan x="16.0" y="131" fill="#8b949e">├───────────┼──────────────────────────┼──────────────────────────┼───────┤</tspan>
<tspan x="16.0" y="151" fill="#8b949e">│ </tspan><tspan x="32.8" y="151" fill="#ff4444" font-weight="bold">CRITICAL </tspan><tspan x="108.4" y="151" fill="#8b949e"> │ </tspan><tspan x="133.6" y="151" fill="#c9d1d9">Privileged Container    </tspan><tspan x="335.2" y="151" fill="#8b949e"> │ </tspan><tspan x="360.4" y="151" fill="#58a6ff">k8s/deployment.yaml     </tspan><tspan x="562.0" y="151" fill="#8b949e"> │ </tspan><tspan x="587.2" y="151" fill="#c9d1d9">15   </tspan><tspan x="629.2" y="151" fill="#8b949e"> │</tspan>
<tspan x="16.0" y="171" fill="#8b949e">│ </tspan><tspan x="32.8" y="171" fill="#ff4444" font-weight="bold">CRITICAL </tspan><tspan x="108.4" y="171" fill="#8b949e"> │ </tspan><tspan x="133.6" y="171" fill="#c9d1d9">Command Injection       </tspan><tspan x="335.2" y="171" fill="#8b949e"> │ </tspan><tspan x="360.4" y="171" fill="#58a6ff">src/server.js           </tspan><tspan x="562.0" y="171" fill="#8b949e"> │ </tspan><tspan x="587.2" y="171" fill="#c9d1d9">23   </tspan><tspan x="629.2" y="171" fill="#8b949e"> │</tspan>
<tspan x="16.0" y="191" fill="#8b949e">│ </tspan><tspan x="32.8" y="191" fill="#ff8800" font-weight="bold">HIGH     </tspan><tspan x="108.4" y="191" fill="#8b949e"> │ </tspan><tspan x="133.6" y="191" fill="#c9d1d9">Hardcoded Password      </tspan><tspan x="335.2" y="191" fill="#8b949e"> │ </tspan><tspan x="360.4" y="191" fill="#58a6ff">config/database.js      </tspan><tspan x="562.0" y="191" fill="#8b949e"> │ </tspan><tspan x="587.2" y="191" fill="#c9d1d9">7    </tspan><tspan x="629.2" y="191" fill="#8b949e"> │</tspan>
<tspan x="16.0" y="211" fill="#8b949e">│ </tspan><tspan x="32.8" y="211" fill="#ff8800" font-weight="bold">HIGH     </tspan><tspan x="108.4" y="211" fill="#8b949e"> │ </tspan><tspan x="133.6" y="211" fill="#c9d1d9">Hardcoded API Key       </tspan><tspan x="335.2" y="211" fill="#8b949e"> │ </tspan><tspan x="360.4" y="211" fill="#58a6ff">config/database.js      </tspan><tspan x="562.0" y="211" fill="#8b949e"> │ </tspan><tspan x="587.2" y="211" fill="#c9d1d9">8    </tspan><tspan x="629.2" y="211" fill="#8b949e"> │</tspan>
<tspan x="16.0" y="231" fill="#8b949e">│ </tspan><tspan x="32.8" y="231" fill="#ff8800" font-weight="bold">HIGH     </tspan><tspan x="108.4" y="231" fill="#8b949e"> │ </tspan><tspan x="133.6" y="231" fill="#c9d1d9">JWT Secret              </tspan><tspan x="335.2" y="231" fill="#8b949e"> │ </tspan><tspan x="360.4" y="231" fill="#58a6ff">config/database.js      </tspan><tspan x="562.0" y="231" fill="#8b949e"> │ </tspan><tspan x="587.2" y="231" fill="#c9d1d9">9    </tspan><tspan x="629.2" y="231" fill="#8b949e"> │</tspan>
<tspan x="16.0" y="251" fill="#8b949e">│ </tspan><tspan x="32.8" y="251" fill="#ff8800" font-weight="bold">HIGH     </tspan><tspan x="108.4" y="251" fill="#8b949e"> │ </tspan><tspan x="133.6" y="251" fill="#c9d1d9">Database URL with creden</tspan><tspan x="335.2" y="251" fill="#8b949e"> │ </tspan><tspan x="360.4" y="251" fill="#58a6ff">config/database.js      </tspan><tspan x="562.0" y="251" fill="#8b949e"> │ </tspan><tspan x="587.2" y="251" fill="#c9d1d9">11   </tspan><tspan x="629.2" y="251" fill="#8b949e"> │</tspan>
<tspan x="16.0" y="271" fill="#8b949e">│ </tspan><tspan x="32.8" y="271" fill="#ff8800" font-weight="bold">HIGH     </tspan><tspan x="108.4" y="271" fill="#8b949e"> │ </tspan><tspan x="133.6" y="271" fill="#c9d1d9">Root Container          </tspan><tspan x="335.2" y="271" fill="#8b949e"> │ </tspan><tspan x="360.4" y="271" fill="#58a6ff">Dockerfile              </tspan><tspan x="562.0" y="271" fill="#8b949e"> │ </tspan><tspan x="587.2" y="271" fill="#c9d1d9">9    </tspan><tspan x="629.2" y="271" fill="#8b949e"> │</tspan>
<tspan x="16.0" y="291" fill="#8b949e">│ </tspan><tspan x="32.8" y="291" fill="#ff8800" font-weight="bold">HIGH     </tspan><tspan x="108.4" y="291" fill="#8b949e"> │ </tspan><tspan x="133.6" y="291" fill="#c9d1d9">Exposed Secret in Env   </tspan><tspan x="335.2" y="291" fill="#8b949e"> │ </tspan><tspan x="360.4" y="291" fill="#58a6ff">Dockerfile              </tspan><tspan x="562.0" y="291" fill="#8b949e"> │ </tspan><tspan x="587.2" y="291" fill="#c9d1d9">11   </tspan><tspan x="629.2" y="291" fill="#8b949e"> │</tspan>
<tspan x="16.0" y="311" fill="#8b949e">│ </tspan><tspan x="32.8" y="311" fill="#ff8800" font-weight="bold">HIGH     </tspan><tspan x="108.4" y="311" fill="#8b949e"> │ </tspan><tspan x="133.6" y="311" fill="#c9d1d9">Host Network            </tspan><tspan x="335.2" y="311" fill="#8b949e"> │ </tspan><tspan x="360.4" y="311" fill="#58a6ff">k8s/deployment.yaml     </tspan><tspan x="562.0" y="311" fill="#8b949e"> │ </tspan><tspan x="587.2" y="311" fill="#c9d1d9">10   </tspan><tspan x="629.2" y="311" fill="#8b949e"> │</tspan>
<tspan x="16.0" y="331" fill="#8b949e">│ </tspan><tspan x="32.8" y="331" fill="#ff8800" font-weight="bold">HIGH     </tspan><tspan x="108.4" y="331" fill="#8b949e"> │ </tspan><tspan x="133.6" y="331" fill="#c9d1d9">SQL Injection Risk      </tspan><tspan x="335.2" y="331" fill="#8b949e"> │ </tspan><tspan x="360.4" y="331" fill="#58a6ff">src/server.js           </tspan><tspan x="562.0" y="331" fill="#8b949e"> │ </tspan><tspan x="587.2" y="331" fill="#c9d1d9">16   </tspan><tspan x="629.2" y="331" fill="#8b949e"> │</tspan>
<tspan x="16.0" y="351" fill="#8b949e">│ </tspan><tspan x="32.8" y="351" fill="#ff8800" font-weight="bold">HIGH     </tspan><tspan x="108.4" y="351" fill="#8b949e"> │ </tspan><tspan x="133.6" y="351" fill="#c9d1d9">SQL Injection Risk      </tspan><tspan x="335.2" y="351" fill="#8b949e"> │ </tspan><tspan x="360.4" y="351" fill="#58a6ff">src/server.js           </tspan><tspan x="562.0" y="351" fill="#8b949e"> │ </tspan><tspan x="587.2" y="351" fill="#c9d1d9">23   </tspan><tspan x="629.2" y="351" fill="#8b949e"> │</tspan>
<tspan x="16.0" y="371" fill="#8b949e">│ </tspan><tspan x="32.8" y="371" fill="#ff8800" font-weight="bold">HIGH     </tspan><tspan x="108.4" y="371" fill="#8b949e"> │ </tspan><tspan x="133.6" y="371" fill="#c9d1d9">Open Redirect           </tspan><tspan x="335.2" y="371" fill="#8b949e"> │ </tspan><tspan x="360.4" y="371" fill="#58a6ff">src/server.js           </tspan><tspan x="562.0" y="371" fill="#8b949e"> │ </tspan><tspan x="587.2" y="371" fill="#c9d1d9">30   </tspan><tspan x="629.2" y="371" fill="#8b949e"> │</tspan>
<tspan x="16.0" y="391" fill="#8b949e">│ </tspan><tspan x="32.8" y="391" fill="#ff8800" font-weight="bold">HIGH     </tspan><tspan x="108.4" y="391" fill="#8b949e"> │ </tspan><tspan x="133.6" y="391" fill="#c9d1d9">Weak Crypto             </tspan><tspan x="335.2" y="391" fill="#8b949e"> │ </tspan><tspan x="360.4" y="391" fill="#58a6ff">src/server.js           </tspan><tspan x="562.0" y="391" fill="#8b949e"> │ </tspan><tspan x="587.2" y="391" fill="#c9d1d9">35   </tspan><tspan x="629.2" y="391" fill="#8b949e"> │</tspan>
<tspan x="16.0" y="411" fill="#8b949e">│ </tspan><tspan x="32.8" y="411" fill="#ffd000" font-weight="bold">MEDIUM   </tspan><tspan x="108.4" y="411" fill="#8b949e"> │ </tspan><tspan x="133.6" y="411" fill="#c9d1d9">Generic Secret          </tspan><tspan x="335.2" y="411" fill="#8b949e"> │ </tspan><tspan x="360.4" y="411" fill="#58a6ff">config/database.js      </tspan><tspan x="562.0" y="411" fill="#8b949e"> │ </tspan><tspan x="587.2" y="411" fill="#c9d1d9">9    </tspan><tspan x="629.2" y="411" fill="#8b949e"> │</tspan>
<tspan x="16.0" y="431" fill="#8b949e">│ </tspan><tspan x="32.8" y="431" fill="#ffd000" font-weight="bold">MEDIUM   </tspan><tspan x="108.4" y="431" fill="#8b949e"> │ </tspan><tspan x="133.6" y="431" fill="#c9d1d9">Latest Tag              </tspan><tspan x="335.2" y="431" fill="#8b949e"> │ </tspan><tspan x="360.4" y="431" fill="#58a6ff">Dockerfile              </tspan><tspan x="562.0" y="431" fill="#8b949e"> │ </tspan><tspan x="587.2" y="431" fill="#c9d1d9">2    </tspan><tspan x="629.2" y="431" fill="#8b949e"> │</tspan>
<tspan x="16.0" y="451" fill="#8b949e">│ </tspan><tspan x="32.8" y="451" fill="#ffd000" font-weight="bold">MEDIUM   </tspan><tspan x="108.4" y="451" fill="#8b949e"> │ </tspan><tspan x="133.6" y="451" fill="#c9d1d9">Insecure Random         </tspan><tspan x="335.2" y="451" fill="#8b949e"> │ </tspan><tspan x="360.4" y="451" fill="#58a6ff">src/server.js           </tspan><tspan x="562.0" y="451" fill="#8b949e"> │ </tspan><tspan x="587.2" y="451" fill="#c9d1d9">40   </tspan><tspan x="629.2" y="451" fill="#8b949e"> │</tspan>
<tspan x="16.0" y="471" fill="#8b949e">│ </tspan><tspan x="32.8" y="471" fill="#ffd000" font-weight="bold">MEDIUM   </tspan><tspan x="108.4" y="471" fill="#8b949e"> │ </tspan><tspan x="133.6" y="471" fill="#c9d1d9">HTTP not HTTPS          </tspan><tspan x="335.2" y="471" fill="#8b949e"> │ </tspan><tspan x="360.4" y="471" fill="#58a6ff">src/server.js           </tspan><tspan x="562.0" y="471" fill="#8b949e"> │ </tspan><tspan x="587.2" y="471" fill="#c9d1d9">44   </tspan><tspan x="629.2" y="471" fill="#8b949e"> │</tspan>
<tspan x="16.0" y="491" fill="#8b949e">└───────────┴──────────────────────────┴──────────────────────────┴───────┘</tspan>

<tspan x="16.0" y="531" fill="#ff4444" font-weight="bold">  2 CRITICAL</tspan><tspan x="116.8" y="531" fill="#ff8800" font-weight="bold">  ·  11 HIGH</tspan><tspan x="217.6" y="531" fill="#ffd000">  ·  4 MEDIUM</tspan><tspan x="326.8" y="531" fill="#c9d1d9">  ·  0 LOW</tspan></text>
</svg>